# xmcd CD database file
#
# Track frame offsets:
#	150
#	33536
#	65299
#	108360
#	125929
#	153443
#	180149
#	200053
#	217333
#	243506
#
# Disc length: 3583 seconds
#
# Revision: 0
# Processed by: cddbd v1.5.2PL0 Copyright (c) Steve Scherf et al.
# Submitted via: CDex 1.70beta2
#
DISCID=940dfd0a
DTITLE=Nambajazz - The Gun
DYEAR=2008
DGENRE=Jazz
TTITLE0=Above All
TTITLE1=Then
TTITLE2=To My Disbelief
TTITLE3=Namusan
TTITLE4=So True
TTITLE5=Intaglio
TTITLE6=Somersault
TTITLE7=If Not
TTITLE8=An Air Corridor
TTITLE9=Flash of the Sword
EXTD=YEAR: 2008
EXTT0=
EXTT1=
EXTT2=
EXTT3=
EXTT4=
EXTT5=
EXTT6=
EXTT7=
EXTT8=
EXTT9=
PLAYORDER=
